<svg width="153" height="78" viewBox="0 0 153 78" fill="none" xmlns="http://www.w3.org/2000/svg">
<g clip-path="url(#clip0_714_10626)">
<path d="M18.9 26.9445C18.9 28.637 14.1346 30.0877 10.8231 30.0877C3.71538 30.0877 0 25.4938 0 15.7419C0 6.19146 3.675 1.11401 10.9038 1.11401C14.5384 1.11401 18.4154 2.88709 18.4154 3.57214C18.4154 3.69303 18.375 3.85422 18.2134 4.1766L16.8808 6.83622C16.7596 7.078 16.5981 7.23919 16.4365 7.23919C16.1942 7.23919 13.9327 5.46611 11.1865 5.46611C7.0673 5.46611 5.73461 9.29435 5.73461 15.4598C5.73461 21.7462 6.78461 25.7356 11.1461 25.7356C12.6404 25.7356 13.6904 25.252 14.0538 25.0909V19.2478H11.025C10.3385 19.2478 10.1769 19.1269 10.1769 18.4015V15.7419C10.1769 15.0165 10.3385 14.8957 11.025 14.8957H18.0519C18.7384 14.8957 18.9 15.0165 18.9 15.7419V26.9445Z" fill="#CF1623"/>
<path d="M39.0103 27.2669C39.091 27.3878 39.1314 27.549 39.1314 27.7102C39.1314 28.7579 35.093 30.0877 31.9026 30.0877C26.5718 30.0877 22.8564 27.0654 22.8564 19.6507C22.8564 13.2435 26.2891 8.81079 31.7007 8.81079C38.566 8.81079 39.7776 14.936 39.7776 19.8119C39.7776 20.5776 39.616 20.8194 38.8487 20.8194H27.986C27.986 23.076 28.6322 25.8565 32.4283 25.8565C35.336 25.8565 36.9918 24.5267 37.5572 24.5267C37.7591 24.5267 37.9206 24.6879 38.0014 24.8491L39.0103 27.2669ZM34.3257 17.0717C34.3257 15.4195 34.2045 12.5584 31.418 12.5584C28.268 12.5584 28.1064 15.9434 27.9853 17.0717H34.3257Z" fill="#CF1623"/>
<path d="M49.3488 28.8385C49.3488 29.2818 49.268 29.4027 48.7834 29.4027H44.7853C44.3007 29.4027 44.2199 29.2818 44.2199 28.8385V16.6687C44.2199 12.2361 43.1699 11.5107 43.1699 10.5839C43.1699 10.4227 43.3315 10.3018 43.5334 10.2212L46.6026 8.97198C46.7642 8.93168 46.9661 8.81079 47.1276 8.81079C47.6122 8.81079 48.4199 10.6242 48.6218 11.9943C49.3891 11.0674 50.8834 8.81079 53.6295 8.81079C54.8007 8.81079 55.9718 9.21376 55.9718 9.73763C55.9718 9.89882 55.9314 10.06 55.8911 10.1406L54.6391 13.5256C54.5988 13.6465 54.4776 13.8882 54.3161 13.8882C54.0738 13.8882 53.3468 13.445 52.418 13.445C51.1661 13.445 49.8738 14.8151 49.3488 15.3792V28.8385Z" fill="#CF1623"/>
<path d="M84.4026 28.8385C84.4026 29.2818 84.3218 29.4027 83.8372 29.4027H79.8391C79.3545 29.4027 79.2737 29.2818 79.2737 28.8385V16.427C79.2737 14.8957 79.1122 13.042 77.5776 13.042C75.8807 13.042 74.5488 14.2106 74.023 14.6942V28.8385C74.023 29.2818 73.9423 29.4027 73.4576 29.4027H69.4596C68.975 29.4027 68.8942 29.2818 68.8942 28.8385V16.427C68.8942 14.8957 68.7326 13.042 67.198 13.042C65.5019 13.042 64.1692 14.2106 63.6442 14.6942V28.8385C63.6442 29.2818 63.5634 29.4027 63.0788 29.4027H59.0807C58.5961 29.4027 58.5154 29.2818 58.5154 28.8385V16.6687C58.5154 10.9868 57.748 11.3092 57.748 10.3824C57.748 10.1809 57.9096 10.0197 58.1923 9.93911L61.2615 8.93168C61.5038 8.85109 61.7057 8.81079 61.8673 8.81079C62.3923 8.81079 62.7153 9.69733 63.1596 11.5913C64.3711 10.5436 66.148 8.81079 69.3384 8.81079C71.075 8.81079 72.973 9.89882 73.4576 11.5913C74.6692 10.5436 76.4057 8.81079 79.7173 8.81079C83.5134 8.81079 84.4019 11.6719 84.4019 15.1777L84.4026 28.8385Z" fill="#CF1623"/>
<path d="M96.4782 28.8386C96.4782 29.2818 96.3981 29.4027 95.9135 29.4027H91.9154C91.4301 29.4027 91.3501 29.2818 91.3501 28.8386V13.2435H88.2404C87.7558 13.2435 87.6758 13.1226 87.6758 12.6794V10.0601C87.6758 9.61679 87.7558 9.4959 88.2404 9.4959H95.9142C96.3989 9.4959 96.4789 9.61679 96.4789 10.0601V28.8386H96.4782ZM93.8936 6.87658C92.0366 6.87658 90.5424 5.38558 90.5424 3.53191C90.5424 1.67824 92.0366 0.227539 93.8936 0.227539C95.7116 0.227539 97.2058 1.67824 97.2058 3.53191C97.2058 5.38558 95.7116 6.87658 93.8936 6.87658Z" fill="#CF1623"/>
<path d="M118.609 28.8385C118.609 29.2818 118.528 29.4027 118.044 29.4027H114.045C113.561 29.4027 113.48 29.2818 113.48 28.8385V16.427C113.48 14.8957 113.278 13.042 111.219 13.042C109.522 13.042 108.19 14.2106 107.664 14.6942V28.8385C107.664 29.2818 107.584 29.4027 107.099 29.4027H103.101C102.616 29.4027 102.536 29.2818 102.536 28.8385V16.6687C102.536 10.9868 101.769 11.3092 101.769 10.3824C101.769 10.1809 101.931 10.0197 102.213 9.93911L105.282 8.93168C105.524 8.85109 105.726 8.81079 105.888 8.81079C106.413 8.81079 106.736 9.69733 107.18 11.5913C108.351 10.5436 110.169 8.81079 113.359 8.81079C115.58 8.81079 118.609 9.81822 118.609 14.6942V28.8385Z" fill="#CF1623"/>
<path d="M135.851 29.9265C135.689 29.9668 135.488 30.0877 135.326 30.0877C134.962 30.0877 134.357 28.6773 134.155 27.6699C133.347 28.4758 131.933 30.0877 128.905 30.0877C125.19 30.0877 122.848 27.6699 122.848 23.8819C122.848 17.0717 130.198 17.0717 133.388 17.0717V15.8225C133.388 14.0091 133.065 12.8405 130.52 12.8405C128.258 12.8405 126.037 14.0494 125.513 14.0494C125.311 14.0494 125.15 13.8076 125.108 13.6465L124.301 11.1883C124.221 11.0271 124.18 10.8659 124.18 10.7048C124.18 9.77792 128.178 8.81079 131.287 8.81079C136.335 8.81079 138.233 11.1077 138.233 15.2986V23.076C138.233 26.9848 139.283 27.5087 139.283 28.3146C139.283 28.4758 139.122 28.5967 138.92 28.6773L135.851 29.9265H135.851ZM133.388 20.3761C132.378 20.3761 127.694 20.0537 127.694 23.5999C127.694 25.1715 128.825 26.3401 130.359 26.3401C131.853 26.3401 132.903 25.2923 133.388 24.8088V20.3761Z" fill="#CF1623"/>
<path d="M152.449 28.6371C152.49 28.8386 152.53 28.8386 152.53 28.9594C152.53 29.5236 150.389 30.0878 148.451 30.0878C143.483 30.0878 143.483 26.0178 143.483 22.3104V1.75883C143.483 1.15437 143.767 1.15437 144.251 1.03348L147.643 0.348431C147.764 0.348431 148.128 0.227539 148.208 0.227539C148.531 0.227539 148.612 0.388728 148.612 1.07378V23.0358C148.612 24.3253 148.612 25.4536 149.743 25.4536C150.55 25.4536 151.076 25.0909 151.318 25.0909C151.48 25.0909 151.601 25.1715 151.641 25.3327L152.449 28.6371H152.449Z" fill="#CF1623"/>
<path d="M18.9 66.5222C18.9 68.2146 14.1346 69.6653 10.8231 69.6653C3.71538 69.6653 0 65.0715 0 55.3195C0 45.7691 3.675 40.6917 10.9038 40.6917C14.5384 40.6917 18.4154 42.4647 18.4154 43.1498C18.4154 43.2707 18.375 43.4319 18.2134 43.7542L16.8808 46.4139C16.7596 46.6556 16.5981 46.8168 16.4365 46.8168C16.1942 46.8168 13.9327 45.0437 11.1865 45.0437C7.0673 45.0437 5.73461 48.872 5.73461 55.0375C5.73461 61.3238 6.78461 65.3132 11.1461 65.3132C12.6404 65.3132 13.6904 64.8297 14.0538 64.6685V58.8254H11.025C10.3385 58.8254 10.1769 58.7045 10.1769 57.9792V55.3195C10.1769 54.5942 10.3385 54.4733 11.025 54.4733H18.0519C18.7384 54.4733 18.9 54.5942 18.9 55.3195V66.5222Z" fill="black"/>
<path d="M29.1574 68.4161C29.1574 68.8594 29.0766 68.9803 28.592 68.9803H24.5939C24.1093 68.9803 24.0285 68.8594 24.0285 68.4161V56.2464C24.0285 51.8137 22.9785 51.0883 22.9785 50.1615C22.9785 50.0003 23.1401 49.8794 23.342 49.7988L26.4112 48.5496C26.5727 48.5093 26.7747 48.3884 26.9362 48.3884C27.4208 48.3884 28.2285 50.2018 28.4304 51.5719C29.1977 50.6451 30.692 48.3884 33.4381 48.3884C34.6093 48.3884 35.7804 48.7914 35.7804 49.3153C35.7804 49.4765 35.74 49.6376 35.6997 49.7182L34.4477 53.1032C34.4073 53.2241 34.2862 53.4659 34.1247 53.4659C33.8823 53.4659 33.1554 53.0226 32.2266 53.0226C30.9747 53.0226 29.6824 54.3927 29.1574 54.9569V68.4161Z" fill="black"/>
<path d="M45.1492 69.6654C39.6973 69.6654 36.3857 65.5147 36.3857 59.0269C36.3857 52.539 39.6973 48.3884 45.1492 48.3884C50.5607 48.3884 53.9126 52.539 53.9126 59.0269C53.9126 65.5147 50.6011 69.6654 45.1492 69.6654ZM48.4607 59.0269C48.4607 55.2792 47.9357 52.4181 45.1492 52.4181C42.3627 52.4181 41.8377 55.2792 41.8377 59.0269C41.8377 62.7745 42.3223 65.6356 45.1492 65.6356C47.9761 65.6356 48.4607 62.8148 48.4607 59.0269Z" fill="black"/>
<path d="M71.6824 69.5445C71.4401 69.6251 71.2381 69.6654 71.0766 69.6654C70.5516 69.6654 70.2285 68.8997 69.7843 67.2878C68.6939 68.255 66.7958 69.6654 63.6055 69.6654C61.3843 69.6654 58.3555 68.6579 58.3555 63.782V49.9197C58.3555 49.3556 58.6382 49.3153 59.1228 49.1944L62.5151 48.5093C62.6362 48.5093 63.0401 48.3884 63.1612 48.3884C63.4035 48.3884 63.4843 48.5496 63.4843 49.2347V62.0492C63.4843 63.5805 63.6862 65.4341 65.7458 65.4341C67.442 65.4341 68.7747 64.5476 69.2997 64.1849V49.9197C69.2997 49.3556 69.5824 49.3153 70.067 49.1944L73.4593 48.5093C73.5805 48.5093 73.9843 48.3884 74.1458 48.3884C74.3478 48.3884 74.4285 48.5496 74.4285 49.2347V61.8074C74.4285 67.4893 75.1958 67.1669 75.1958 68.0938C75.1958 68.2952 75.0343 68.4564 74.7516 68.537L71.6824 69.5445Z" fill="black"/>
<path d="M85.5331 75.992C85.5331 76.5562 85.2497 76.6368 84.7658 76.7174L81.3735 77.4024C81.2524 77.4427 80.8889 77.5233 80.6877 77.5233C80.4865 77.5233 80.4043 77.3621 80.4043 76.6771V56.2464C80.4043 50.5645 79.6377 50.8869 79.6377 49.96C79.6377 49.7585 79.7992 49.5973 80.0812 49.5168L83.1504 48.5093C83.3935 48.4287 83.5947 48.3884 83.7569 48.3884C84.2819 48.3884 84.5646 49.1541 85.0081 50.4839C85.8966 49.6376 87.4716 48.3884 90.1773 48.3884C94.66 48.3884 97.1639 51.8943 97.1639 58.6642C97.1639 65.7162 94.9831 69.6654 89.7331 69.6654C87.3908 69.6654 86.3812 69.0609 85.5331 68.6176V75.992ZM85.5331 64.87C86.26 65.273 86.9055 65.6356 88.4812 65.6356C91.3081 65.6356 92.035 63.6208 92.035 58.8657C92.035 54.7151 91.2685 52.4181 88.7639 52.4181C87.0677 52.4181 86.0992 53.4256 85.5338 53.9494L85.5331 64.87Z" fill="black"/>
</g>
<defs>
<clipPath id="clip0_714_10626">
<rect width="152.53" height="77.2958" fill="white" transform="translate(0 0.227539)"/>
</clipPath>
</defs>
</svg>
